<svg width="20" height="20" viewBox="0 0 20 20" fill="none" xmlns="http://www.w3.org/2000/svg">
<path d="M14.9998 8.7335V5.00016C14.9998 4.0835 14.2498 3.3335 13.3332 3.3335H3.33317C2.4165 3.3335 1.6665 4.0835 1.6665 5.00016V15.0002C1.6665 15.9168 2.4165 16.6668 3.33317 16.6668H13.3332C14.2498 16.6668 14.9998 15.9168 14.9998 15.0002V11.2668L18.3332 14.5835V5.41683L14.9998 8.7335ZM13.3332 15.0002H3.33317V5.00016H13.3332V15.0002Z" fill="#31333F" fill-opacity="0.6"/>
<path d="M8.33317 10.0002C9.25364 10.0002 9.99984 9.25397 9.99984 8.3335C9.99984 7.41302 9.25364 6.66683 8.33317 6.66683C7.4127 6.66683 6.6665 7.41302 6.6665 8.3335C6.6665 9.25397 7.4127 10.0002 8.33317 10.0002Z" fill="#31333F" fill-opacity="0.6"/>
<path d="M11.6665 12.8585C11.6665 12.1835 11.2665 11.5835 10.6498 11.3168C9.9415 11.0085 9.15817 10.8335 8.33317 10.8335C7.50817 10.8335 6.72484 11.0085 6.0165 11.3168C5.39984 11.5835 4.99984 12.1835 4.99984 12.8585V13.3335H11.6665V12.8585Z" fill="#31333F" fill-opacity="0.6"/>
</svg>
