<svg width="20" height="20" viewBox="0 0 20 20" fill="none" xmlns="http://www.w3.org/2000/svg">
<path d="M15.8333 2.50016H12.35C12 1.5335 11.0833 0.833496 10 0.833496C8.91667 0.833496 8 1.5335 7.65 2.50016H4.16667C3.25 2.50016 2.5 3.25016 2.5 4.16683V17.5002C2.5 18.4168 3.25 19.1668 4.16667 19.1668H15.8333C16.75 19.1668 17.5 18.4168 17.5 17.5002V4.16683C17.5 3.25016 16.75 2.50016 15.8333 2.50016ZM10 2.50016C10.4583 2.50016 10.8333 2.87516 10.8333 3.3335C10.8333 3.79183 10.4583 4.16683 10 4.16683C9.54167 4.16683 9.16667 3.79183 9.16667 3.3335C9.16667 2.87516 9.54167 2.50016 10 2.50016ZM15.8333 17.5002H4.16667V4.16683H5.83333V6.66683H14.1667V4.16683H15.8333V17.5002Z" fill="#31333F" fill-opacity="0.6"/>
</svg>
