<svg width="20" height="20" viewBox="0 0 20 20" fill="none" xmlns="http://www.w3.org/2000/svg">
<g clip-path="url(#clip0_4359_498)">
<path d="M5.8585 4.12516L2.9085 7.07516C0.141829 9.84183 0.141829 14.3252 2.9085 17.0918C5.67516 19.8585 10.1585 19.8585 12.9252 17.0918L17.9335 12.0835C18.7418 11.2752 18.7418 9.95016 17.9335 9.1335C17.8335 9.0335 17.7252 8.94183 17.6085 8.86683L17.9335 8.54183C18.7418 7.7335 18.7418 6.4085 17.9335 5.59183C17.8002 5.4585 17.6418 5.34183 17.4835 5.25016C17.8168 4.4835 17.6752 3.56683 17.0502 2.94183C16.3252 2.21683 15.2002 2.14183 14.3835 2.7085C14.3002 2.5835 14.2085 2.46683 14.1002 2.3585C13.2918 1.55016 11.9668 1.55016 11.1502 2.3585L9.0585 4.45016C8.9835 4.3335 8.89183 4.22516 8.79183 4.12516C7.9835 3.31683 6.66683 3.31683 5.8585 4.12516ZM7.0335 5.3085C7.20016 5.14183 7.4585 5.14183 7.62516 5.3085C7.79183 5.47516 7.79183 5.7335 7.62516 5.90016L4.97516 8.55016C5.95016 9.52516 5.95016 11.1085 4.97516 12.0835L6.15016 13.2585C7.3585 12.0502 7.66683 10.2835 7.0835 8.79183L12.3335 3.54183C12.5002 3.37516 12.7585 3.37516 12.9252 3.54183C13.0918 3.7085 13.0918 3.96683 12.9252 4.1335L9.09183 7.96683L10.2668 9.14183L15.2752 4.1335C15.4418 3.96683 15.7002 3.96683 15.8668 4.1335C16.0335 4.30016 16.0335 4.5585 15.8668 4.72516L10.8585 9.7335L12.0335 10.9085L16.1585 6.7835C16.3252 6.61683 16.5835 6.61683 16.7502 6.7835C16.9168 6.95016 16.9168 7.2085 16.7502 7.37516L12.0335 12.0918L13.2085 13.2668L16.1585 10.3168C16.3252 10.1502 16.5835 10.1502 16.7502 10.3168C16.9168 10.4835 16.9168 10.7418 16.7502 10.9085L11.7502 15.9168C9.6335 18.0335 6.2085 18.0335 4.09183 15.9168C1.97516 13.8002 1.97516 10.3752 4.09183 8.2585L7.0335 5.3085ZM19.1668 14.1668C19.1668 16.9252 16.9252 19.1668 14.1668 19.1668V17.9168C16.2335 17.9168 17.9168 16.2335 17.9168 14.1668H19.1668ZM0.833496 5.8335C0.833496 3.07516 3.07516 0.833496 5.8335 0.833496V2.0835C3.76683 2.0835 2.0835 3.76683 2.0835 5.8335H0.833496Z" fill="#31333F" fill-opacity="0.6"/>
</g>
<defs>
<clipPath id="clip0_4359_498">
<rect width="20" height="20" fill="white"/>
</clipPath>
</defs>
</svg>
