<svg width="21" height="25" viewBox="0 0 21 25" fill="none" xmlns="http://www.w3.org/2000/svg">
<path d="M9.0415 3.75016H6.12484V0.833496H9.0415V3.75016ZM14.8748 0.833496H11.9582V3.75016H14.8748V0.833496ZM6.12484 15.4168H9.0415V12.5002H6.12484V15.4168ZM20.7082 9.5835V6.66683H17.7915V9.5835H20.7082ZM20.7082 15.4168V12.5002H17.7915V15.4168H20.7082ZM11.9582 15.4168H14.8748V12.5002H11.9582V15.4168ZM20.7082 0.833496H17.7915V3.75016H20.7082V0.833496ZM11.9582 6.66683V3.75016H9.0415V6.66683H11.9582ZM3.20817 9.5835V6.66683H6.12484V3.75016H3.20817V0.833496H0.291504V24.1668H3.20817V12.5002H6.12484V9.5835H3.20817ZM14.8748 12.5002H17.7915V9.5835H14.8748V12.5002ZM9.0415 9.5835V12.5002H11.9582V9.5835H9.0415ZM6.12484 6.66683V9.5835H9.0415V6.66683H6.12484ZM11.9582 9.5835H14.8748V6.66683H11.9582V9.5835ZM14.8748 3.75016V6.66683H17.7915V3.75016H14.8748Z" fill="#31333F" fill-opacity="0.6"/>
</svg>
