<svg width="20" height="20" viewBox="0 0 20 20" fill="none" xmlns="http://www.w3.org/2000/svg">
<path d="M17.5002 5H2.50016C1.5835 5 0.833496 5.75 0.833496 6.66667V13.3333C0.833496 14.25 1.5835 15 2.50016 15H17.5002C18.4168 15 19.1668 14.25 19.1668 13.3333V6.66667C19.1668 5.75 18.4168 5 17.5002 5ZM17.5002 13.3333H2.50016V6.66667H17.5002V13.3333ZM5.00016 12.5H6.66683V10.8333H8.3335V9.16667H6.66683V7.5H5.00016V9.16667H3.3335V10.8333H5.00016V12.5Z" fill="#31333F" fill-opacity="0.6"/>
<path d="M12.0835 12.5C12.7739 12.5 13.3335 11.9404 13.3335 11.25C13.3335 10.5596 12.7739 10 12.0835 10C11.3931 10 10.8335 10.5596 10.8335 11.25C10.8335 11.9404 11.3931 12.5 12.0835 12.5Z" fill="#31333F" fill-opacity="0.6"/>
<path d="M15.4168 10C16.1072 10 16.6668 9.44036 16.6668 8.75C16.6668 8.05964 16.1072 7.5 15.4168 7.5C14.7265 7.5 14.1668 8.05964 14.1668 8.75C14.1668 9.44036 14.7265 10 15.4168 10Z" fill="#31333F" fill-opacity="0.6"/>
</svg>
